<svg xmlns="http://www.w3.org/2000/svg" viewBox="0 0 512 512" role="img" aria-label="Thinking walrus">
  <g fill="none" stroke="#1B2A4E" stroke-width="11" stroke-linejoin="round" stroke-linecap="round">
    <ellipse cx="228" cy="448" rx="136" ry="78" fill="#C4844A"/>
    <path fill="#C4844A" d="M104 392c-26 10-58 6-70-16 16-20 54-26 84-8 16 10 20 26 14 38-8 6-18 2-28-14z"/>
    <path fill="#C4844A" d="M300 304c42 4 78 28 84 58 4 22-10 42-32 50-18 6-36 0-48-12v18c2 28 18 48 42 56-40 16-84-8-96-48-10-34 4-82 50-122z"/>
    <ellipse cx="228" cy="238" rx="148" ry="142" fill="#C4844A"/>
    <ellipse cx="228" cy="298" rx="100" ry="70" fill="#F6E7C6"/>
    <path fill="#FFFFFF" d="M196 352c-4 22-2 44 6 56 10-14 12-34 8-56z"/>
    <path fill="#FFFFFF" d="M260 352c-4 22-2 44 6 56 10-14 12-34 8-56z"/>
    <path fill="#1B2A4E" stroke="none" d="M228 252l22 28c-6 10-16 14-22 14s-16-4-22-14z"/>
    <circle cx="176" cy="202" r="27" fill="#1B2A4E" stroke="none"/>
    <circle cx="276" cy="202" r="27" fill="#1B2A4E" stroke="none"/>
    <circle cx="166" cy="192" r="7.5" fill="#FFFFFF" stroke="none"/>
    <circle cx="182" cy="188" r="4" fill="#FFFFFF" stroke="none"/>
    <circle cx="266" cy="192" r="7.5" fill="#FFFFFF" stroke="none"/>
    <circle cx="282" cy="188" r="4" fill="#FFFFFF" stroke="none"/>
    <path d="M144 166c16-14 44-16 64-2"/>
    <path d="M248 164c16-14 44-14 64 2"/>
    <circle cx="176" cy="302" r="4.2" fill="#1B2A4E" stroke="none"/>
    <circle cx="160" cy="320" r="4.2" fill="#1B2A4E" stroke="none"/>
    <circle cx="188" cy="322" r="4.2" fill="#1B2A4E" stroke="none"/>
    <circle cx="280" cy="302" r="4.2" fill="#1B2A4E" stroke="none"/>
    <circle cx="268" cy="322" r="4.2" fill="#1B2A4E" stroke="none"/>
    <circle cx="296" cy="320" r="4.2" fill="#1B2A4E" stroke="none"/>
    <path d="M148 296c-22-4-40-4-54 2"/>
    <path d="M144 314c-24 2-42 10-54 20"/>
    <path d="M152 330c-18 10-34 22-42 36"/>
    <path d="M308 296c22-4 40-4 54 2"/>
    <path d="M312 314c24 2 42 10 54 20"/>
    <path d="M304 330c18 10 34 22 42 36"/>
  </g>
  <g fill="#8FD6F2" stroke="#1B2A4E" stroke-width="8" stroke-linejoin="round">
    <circle cx="338" cy="126" r="14"/>
    <circle cx="380" cy="80" r="25"/>
    <circle cx="450" cy="52" r="36"/>
  </g>
</svg>
